# xmcd
#
# Track frame offsets:
#	182
#	16537
#	34875
#	52835
#	75555
#	94360
#	113157
#	127510
#	143912
#	167752
#	181330
#	198087
#
# Disc length: 2878 seconds
#
# Revision: 0
# Processed by: cddbd v1.4PL0 Copyright (c) Steve Scherf et al.
# Submitted via: audiograbber 1.80
#
DISCID=890b3c0c
DTITLE=Regg'lyss - Le Monde Tourne
DYEAR=1900
DGENRE=
TTITLE0=J'aime Les Mots
TTITLE1=La Musique Sera Ma Revanche
TTITLE2=Bronze Un Coup
TTITLE3=Ca Va Mieux
TTITLE4=Les 3 Ombres
TTITLE5=Je Suis Venu Te Dire Que Je M'en Vais
TTITLE6=Yes Papa
TTITLE7=Ketre Thatrei
TTITLE8=Le Monde Tourne
TTITLE9=Sans Cette Espérance
TTITLE10=Souviens Toi
TTITLE11=Le Fantome
EXTD=
EXTT0=
EXTT1=
EXTT2=
EXTT3=
EXTT4=
EXTT5=
EXTT6=
EXTT7=
EXTT8=
EXTT9=
EXTT10=
EXTT11=
PLAYORDER=
